<svg width="53" height="53" xmlns="http://www.w3.org/2000/svg">
 <!-- Created with Method Draw - http://github.com/duopixel/Method-Draw/ -->

 <g>
  <title>background</title>
  <rect fill="#fff" id="canvas_background" height="55" width="55" y="-1" x="-1"/>
  <g display="none" overflow="visible" y="0" x="0" height="100%" width="100%" id="canvasGrid">
   <rect fill="url(#gridpattern)" stroke-width="0" y="0" x="0" height="100%" width="100%"/>
  </g>
 </g>
 <g>
  <title>Layer 1</title>
  <g stroke="null" id="svg_48">
   <g stroke="null" transform="matrix(0.0909932796552483,0,0,0.0909932796552483,-884.0203072468703,-1921.2103690800486) " id="svg_27">
    <g stroke="null" id="svg_28">
     <g stroke="null" id="svg_29">
      <g stroke="null" id="svg_30">
       <path stroke="null" id="svg_31" fill="#e9514f" d="m9815.761197,21627.466805c0,12.84 7.755,24.473 19.61,29.367c3.941,1.621 8.073,2.415 12.173,2.415c8.263,0 16.4,-3.242 22.47,-9.312l136.442,-136.442l136.442,136.442c6.07,6.07 14.207,9.312 22.47,9.312c4.1,0 8.232,-0.795 12.141,-2.415c11.887,-4.894 19.642,-16.527 19.642,-29.367l0,-381.39l-381.39,0l0,381.39z"/>
       <path stroke="null" id="svg_32" fill="#e9514f" d="m10165.368197,21150.729805l-317.825,0c-17.543,0 -31.782,14.239 -31.782,31.782l0,31.782l381.39,0l0,-31.782c0,-17.543 -14.239,-31.782 -31.783,-31.782z"/>
      </g>
     </g>
    </g>
   </g>
   <g stroke="null" transform="matrix(0.0909932796552483,0,0,0.0909932796552483,-884.0203072468703,-1921.2103690800486) " id="svg_33"/>
   <g stroke="null" transform="matrix(0.0909932796552483,0,0,0.0909932796552483,-884.0203072468703,-1921.2103690800486) " id="svg_34"/>
   <g stroke="null" transform="matrix(0.0909932796552483,0,0,0.0909932796552483,-884.0203072468703,-1921.2103690800486) " id="svg_35"/>
   <g stroke="null" transform="matrix(0.0909932796552483,0,0,0.0909932796552483,-884.0203072468703,-1921.2103690800486) " id="svg_36"/>
   <g stroke="null" transform="matrix(0.0909932796552483,0,0,0.0909932796552483,-884.0203072468703,-1921.2103690800486) " id="svg_37"/>
   <g stroke="null" transform="matrix(0.0909932796552483,0,0,0.0909932796552483,-884.0203072468703,-1921.2103690800486) " id="svg_38"/>
   <g stroke="null" transform="matrix(0.0909932796552483,0,0,0.0909932796552483,-884.0203072468703,-1921.2103690800486) " id="svg_39"/>
   <g stroke="null" transform="matrix(0.0909932796552483,0,0,0.0909932796552483,-884.0203072468703,-1921.2103690800486) " id="svg_40"/>
   <g stroke="null" transform="matrix(0.0909932796552483,0,0,0.0909932796552483,-884.0203072468703,-1921.2103690800486) " id="svg_41"/>
   <g stroke="null" transform="matrix(0.0909932796552483,0,0,0.0909932796552483,-884.0203072468703,-1921.2103690800486) " id="svg_42"/>
   <g stroke="null" transform="matrix(0.0909932796552483,0,0,0.0909932796552483,-884.0203072468703,-1921.2103690800486) " id="svg_43"/>
   <g stroke="null" transform="matrix(0.0909932796552483,0,0,0.0909932796552483,-884.0203072468703,-1921.2103690800486) " id="svg_44"/>
   <g stroke="null" transform="matrix(0.0909932796552483,0,0,0.0909932796552483,-884.0203072468703,-1921.2103690800486) " id="svg_45"/>
   <g stroke="null" transform="matrix(0.0909932796552483,0,0,0.0909932796552483,-884.0203072468703,-1921.2103690800486) " id="svg_46"/>
   <g stroke="null" transform="matrix(0.0909932796552483,0,0,0.0909932796552483,-884.0203072468703,-1921.2103690800486) " id="svg_47"/>
  </g>
 </g>
</svg>