<svg width="53" height="53" xmlns="http://www.w3.org/2000/svg">
 <!-- Created with Method Draw - http://github.com/duopixel/Method-Draw/ -->

 <g>
  <title>background</title>
  <rect fill="#fff" id="canvas_background" height="55" width="55" y="-1" x="-1"/>
  <g display="none" overflow="visible" y="0" x="0" height="100%" width="100%" id="canvasGrid">
   <rect fill="url(#gridpattern)" stroke-width="0" y="0" x="0" height="100%" width="100%"/>
  </g>
 </g>
 <g>
  <title>Layer 1</title>
  <g id="svg_22">
   <g transform="matrix(0.0950204020755061,0,0,0.0950204020755061,0,0) " id="svg_5">
    <path fill="#3da4e0" id="svg_6" d="m489.862357,287.186439l-204.138,-203.852c-7.235,-7.238 -16.94,-13.374 -29.121,-18.416c-12.185,-5.043 -23.319,-7.565 -33.408,-7.565l-118.771,0c-9.899,0 -18.464,3.619 -25.697,10.848c-7.233,7.233 -10.848,15.798 -10.848,25.697l0,118.771c0,10.088 2.519,21.219 7.564,33.404s11.182,21.792 18.417,28.837l204.135,204.423c7.043,7.043 15.602,10.564 25.697,10.564c9.89,0 18.558,-3.521 25.98,-10.564l140.186,-140.47c7.043,-7.046 10.561,-15.604 10.561,-25.693c0,-9.898 -3.518,-18.559 -10.557,-25.984zm-304.783,-112.632c-7.142,7.138 -15.752,10.709 -25.841,10.709c-10.085,0 -18.699,-3.571 -25.837,-10.709c-7.138,-7.139 -10.706,-15.749 -10.706,-25.837c0,-10.089 3.568,-18.702 10.706,-25.837c7.139,-7.139 15.752,-10.71 25.837,-10.71c10.089,0 18.702,3.571 25.841,10.71c7.135,7.135 10.706,15.749 10.706,25.837c0,10.088 -3.567,18.698 -10.706,25.837z"/>
   </g>
   <g transform="matrix(0.0950204020755061,0,0,0.0950204020755061,0,0) " id="svg_7"/>
   <g transform="matrix(0.0950204020755061,0,0,0.0950204020755061,0,0) " id="svg_8"/>
   <g transform="matrix(0.0950204020755061,0,0,0.0950204020755061,0,0) " id="svg_9"/>
   <g transform="matrix(0.0950204020755061,0,0,0.0950204020755061,0,0) " id="svg_10"/>
   <g transform="matrix(0.0950204020755061,0,0,0.0950204020755061,0,0) " id="svg_11"/>
   <g transform="matrix(0.0950204020755061,0,0,0.0950204020755061,0,0) " id="svg_12"/>
   <g transform="matrix(0.0950204020755061,0,0,0.0950204020755061,0,0) " id="svg_13"/>
   <g transform="matrix(0.0950204020755061,0,0,0.0950204020755061,0,0) " id="svg_14"/>
   <g transform="matrix(0.0950204020755061,0,0,0.0950204020755061,0,0) " id="svg_15"/>
   <g transform="matrix(0.0950204020755061,0,0,0.0950204020755061,0,0) " id="svg_16"/>
   <g transform="matrix(0.0950204020755061,0,0,0.0950204020755061,0,0) " id="svg_17"/>
   <g transform="matrix(0.0950204020755061,0,0,0.0950204020755061,0,0) " id="svg_18"/>
   <g transform="matrix(0.0950204020755061,0,0,0.0950204020755061,0,0) " id="svg_19"/>
   <g transform="matrix(0.0950204020755061,0,0,0.0950204020755061,0,0) " id="svg_20"/>
   <g transform="matrix(0.0950204020755061,0,0,0.0950204020755061,0,0) " id="svg_21"/>
  </g>
 </g>
</svg>